<mxfile host="Electron" modified="2023-04-23T09:19:05.519Z" agent="Mozilla/5.0 (Windows NT 10.0; Win64; x64) AppleWebKit/537.36 (KHTML, like Gecko) draw.io/21.1.2 Chrome/106.0.5249.199 Electron/21.4.3 Safari/537.36" etag="3Ol6eroV0AqDbB9w2zim" version="21.1.2" type="device">
  <diagram id="eRcAj5rjTkCwHIKZOG77" name="Page-1">
    <mxGraphModel dx="3440" dy="1635" grid="0" gridSize="10" guides="1" tooltips="1" connect="1" arrows="1" fold="1" page="1" pageScale="1" pageWidth="850" pageHeight="1100" math="0" shadow="0">
      <root>
        <mxCell id="0" />
        <mxCell id="1" parent="0" />
        <mxCell id="OEdW_wdYPglEoqBex4Tl-1" value="&lt;p style=&quot;line-height: 140%;&quot;&gt;&lt;b&gt;&lt;font style=&quot;font-size: 20px;&quot;&gt;Nom Adventure&lt;/font&gt;&lt;/b&gt;&lt;/p&gt;" style="rounded=1;whiteSpace=wrap;html=1;fillColor=#f8cecc;strokeColor=#b85450;fontSize=15;glass=0;shadow=0;sketch=1;curveFitting=1;jiggle=2;" parent="1" vertex="1">
          <mxGeometry x="335" y="15" width="180" height="60" as="geometry" />
        </mxCell>
        <mxCell id="OEdW_wdYPglEoqBex4Tl-12" value="&lt;b&gt;&lt;font style=&quot;font-size: 20px;&quot;&gt;Snow Area&lt;/font&gt;&lt;/b&gt;" style="rounded=1;whiteSpace=wrap;html=1;fontSize=15;fillColor=#e1d5e7;strokeColor=#9673a6;sketch=1;curveFitting=1;jiggle=2;" parent="1" vertex="1">
          <mxGeometry x="-76" y="296" width="180" height="60" as="geometry" />
        </mxCell>
        <mxCell id="OiDS644HAsrFSR9pFIKz-47" value="" style="edgeStyle=orthogonalEdgeStyle;rounded=0;orthogonalLoop=1;jettySize=auto;html=1;" edge="1" parent="1" source="OEdW_wdYPglEoqBex4Tl-13" target="EWfOVBZDxmi8WCH7ohGd-7">
          <mxGeometry relative="1" as="geometry" />
        </mxCell>
        <mxCell id="OEdW_wdYPglEoqBex4Tl-13" value="&lt;b&gt;&lt;font style=&quot;font-size: 20px;&quot;&gt;Desert Area&lt;/font&gt;&lt;/b&gt;" style="rounded=1;whiteSpace=wrap;html=1;fontSize=15;fillColor=#e1d5e7;strokeColor=#9673a6;sketch=1;curveFitting=1;jiggle=2;" parent="1" vertex="1">
          <mxGeometry x="135" y="296" width="180" height="60" as="geometry" />
        </mxCell>
        <mxCell id="OEdW_wdYPglEoqBex4Tl-14" value="&lt;b&gt;&lt;font style=&quot;font-size: 20px;&quot;&gt;Zombie Area&lt;/font&gt;&lt;/b&gt;" style="rounded=1;whiteSpace=wrap;html=1;fontSize=15;fillColor=#e1d5e7;strokeColor=#9673a6;sketch=1;curveFitting=1;jiggle=2;" parent="1" vertex="1">
          <mxGeometry x="345" y="296" width="180" height="60" as="geometry" />
        </mxCell>
        <mxCell id="OEdW_wdYPglEoqBex4Tl-16" value="&lt;font style=&quot;font-size: 20px;&quot;&gt;&lt;b&gt;Audio Settings&lt;/b&gt;&lt;/font&gt;" style="rounded=1;whiteSpace=wrap;html=1;fontSize=15;fillColor=#e1d5e7;strokeColor=#9673a6;sketch=1;curveFitting=1;jiggle=2;" parent="1" vertex="1">
          <mxGeometry x="-295" y="296" width="180" height="60" as="geometry" />
        </mxCell>
        <mxCell id="OEdW_wdYPglEoqBex4Tl-17" value="&lt;b&gt;&lt;font style=&quot;font-size: 20px;&quot;&gt;Quit Game&lt;/font&gt;&lt;/b&gt;" style="rounded=1;whiteSpace=wrap;html=1;fontSize=15;fillColor=#d5e8d4;strokeColor=#82b366;sketch=1;curveFitting=1;jiggle=2;" parent="1" vertex="1">
          <mxGeometry x="995" y="158" width="180" height="60" as="geometry" />
        </mxCell>
        <mxCell id="OEdW_wdYPglEoqBex4Tl-28" value="&lt;b&gt;&lt;font style=&quot;font-size: 20px;&quot;&gt;Developer Information&lt;/font&gt;&lt;/b&gt;" style="rounded=1;whiteSpace=wrap;html=1;fontSize=15;fillColor=#d5e8d4;strokeColor=#82b366;sketch=1;curveFitting=1;jiggle=2;" parent="1" vertex="1">
          <mxGeometry x="-766" y="158" width="221" height="60" as="geometry" />
        </mxCell>
        <mxCell id="OEdW_wdYPglEoqBex4Tl-42" value="&lt;font style=&quot;font-size: 20px;&quot;&gt;&lt;b&gt;Pause Game&lt;/b&gt;&lt;/font&gt;" style="rounded=1;whiteSpace=wrap;html=1;fontSize=15;fillColor=#fff2cc;strokeColor=#d6b656;sketch=1;curveFitting=1;jiggle=2;" parent="1" vertex="1">
          <mxGeometry x="-435" y="445" width="180" height="60" as="geometry" />
        </mxCell>
        <mxCell id="OEdW_wdYPglEoqBex4Tl-43" value="&lt;b&gt;&lt;font style=&quot;font-size: 20px;&quot;&gt;Main Menu&lt;/font&gt;&lt;/b&gt;" style="rounded=1;whiteSpace=wrap;html=1;fontSize=15;fillColor=#dae8fc;strokeColor=#6c8ebf;sketch=1;curveFitting=1;jiggle=2;" parent="1" vertex="1">
          <mxGeometry x="-817" y="445" width="180" height="60" as="geometry" />
        </mxCell>
        <mxCell id="OEdW_wdYPglEoqBex4Tl-54" value="&lt;font style=&quot;font-size: 20px;&quot;&gt;&lt;b&gt;Enemies&lt;/b&gt;&lt;/font&gt;" style="rounded=1;whiteSpace=wrap;html=1;fontSize=15;fillColor=#ffe6cc;strokeColor=#d79b00;sketch=1;curveFitting=1;jiggle=2;" parent="1" vertex="1">
          <mxGeometry x="135" y="445" width="180" height="60" as="geometry" />
        </mxCell>
        <mxCell id="OEdW_wdYPglEoqBex4Tl-55" value="&lt;b&gt;&lt;font style=&quot;font-size: 20px;&quot;&gt;Trap&lt;/font&gt;&lt;/b&gt;" style="rounded=1;whiteSpace=wrap;html=1;fontSize=15;fillColor=#ffe6cc;strokeColor=#d79b00;sketch=1;curveFitting=1;jiggle=2;" parent="1" vertex="1">
          <mxGeometry x="-244" y="445" width="180" height="60" as="geometry" />
        </mxCell>
        <mxCell id="OEdW_wdYPglEoqBex4Tl-56" value="&lt;font style=&quot;font-size: 20px;&quot;&gt;&lt;b&gt;Background&lt;/b&gt;&lt;/font&gt;" style="rounded=1;whiteSpace=wrap;html=1;fontSize=15;fillColor=#ffe6cc;strokeColor=#d79b00;sketch=1;curveFitting=1;jiggle=2;" parent="1" vertex="1">
          <mxGeometry x="-53" y="445" width="180" height="60" as="geometry" />
        </mxCell>
        <mxCell id="7zV-X1jxaikb9Xa2PMb--13" value="&lt;b&gt;&lt;font style=&quot;font-size: 20px;&quot;&gt;Animation&lt;/font&gt;&lt;/b&gt;" style="rounded=1;whiteSpace=wrap;html=1;fontSize=15;fillColor=#dae8fc;strokeColor=#6c8ebf;sketch=1;curveFitting=1;jiggle=2;" parent="1" vertex="1">
          <mxGeometry x="800" y="593" width="180" height="60" as="geometry" />
        </mxCell>
        <mxCell id="7zV-X1jxaikb9Xa2PMb--15" value="&lt;b&gt;&lt;font style=&quot;font-size: 20px;&quot;&gt;Blood loss effect&lt;/font&gt;&lt;/b&gt;" style="rounded=1;whiteSpace=wrap;html=1;fontSize=15;fillColor=#dae8fc;strokeColor=#6c8ebf;sketch=1;curveFitting=1;jiggle=2;" parent="1" vertex="1">
          <mxGeometry x="1024" y="593" width="180" height="60" as="geometry" />
        </mxCell>
        <mxCell id="7zV-X1jxaikb9Xa2PMb--24" value="&lt;b&gt;&lt;font style=&quot;font-size: 20px;&quot;&gt;Attack&lt;/font&gt;&lt;/b&gt;" style="rounded=1;whiteSpace=wrap;html=1;fontSize=15;fillColor=#dae8fc;strokeColor=#6c8ebf;sketch=1;curveFitting=1;jiggle=2;" parent="1" vertex="1">
          <mxGeometry x="576" y="593" width="180" height="60" as="geometry" />
        </mxCell>
        <mxCell id="7zV-X1jxaikb9Xa2PMb--27" value="&lt;font style=&quot;font-size: 20px;&quot;&gt;&lt;b&gt;Move&lt;/b&gt;&lt;/font&gt;" style="rounded=1;whiteSpace=wrap;html=1;fontSize=15;fillColor=#dae8fc;strokeColor=#6c8ebf;sketch=1;curveFitting=1;jiggle=2;" parent="1" vertex="1">
          <mxGeometry x="351" y="593" width="180" height="60" as="geometry" />
        </mxCell>
        <mxCell id="EWfOVBZDxmi8WCH7ohGd-1" value="&lt;b&gt;&lt;font style=&quot;font-size: 20px;&quot;&gt;Play Game&lt;/font&gt;&lt;/b&gt;" style="rounded=1;whiteSpace=wrap;html=1;fontSize=15;fillColor=#fff2cc;strokeColor=#d6b656;sketch=1;curveFitting=1;jiggle=2;" parent="1" vertex="1">
          <mxGeometry x="-626" y="445" width="180" height="60" as="geometry" />
        </mxCell>
        <mxCell id="EWfOVBZDxmi8WCH7ohGd-2" value="&lt;b&gt;&lt;font style=&quot;font-size: 20px;&quot;&gt;Choose Characters&lt;/font&gt;&lt;/b&gt;" style="rounded=1;whiteSpace=wrap;html=1;fontSize=15;fillColor=#e1d5e7;strokeColor=#9673a6;sketch=1;curveFitting=1;jiggle=2;" parent="1" vertex="1">
          <mxGeometry x="555" y="296" width="200" height="60" as="geometry" />
        </mxCell>
        <mxCell id="EWfOVBZDxmi8WCH7ohGd-5" value="&lt;b&gt;&lt;font style=&quot;font-size: 20px;&quot;&gt;Setting Game&lt;/font&gt;&lt;/b&gt;" style="rounded=1;whiteSpace=wrap;html=1;fontSize=15;fillColor=#d5e8d4;strokeColor=#82b366;sketch=1;curveFitting=1;jiggle=2;perimeterSpacing=0;" parent="1" vertex="1">
          <mxGeometry x="-295" y="158" width="180" height="60" as="geometry" />
        </mxCell>
        <mxCell id="EWfOVBZDxmi8WCH7ohGd-6" value="&lt;b&gt;&lt;font style=&quot;font-size: 20px;&quot;&gt;Shop Game&lt;/font&gt;&lt;/b&gt;" style="rounded=1;whiteSpace=wrap;html=1;fontSize=15;fillColor=#d5e8d4;strokeColor=#82b366;sketch=1;curveFitting=1;jiggle=2;perimeterSpacing=0;" parent="1" vertex="1">
          <mxGeometry x="565" y="158" width="180" height="60" as="geometry" />
        </mxCell>
        <mxCell id="EWfOVBZDxmi8WCH7ohGd-7" value="&lt;b&gt;&lt;font style=&quot;font-size: 20px;&quot;&gt;Play Game&lt;/font&gt;&lt;/b&gt;" style="rounded=1;whiteSpace=wrap;html=1;fontSize=15;fillColor=#d5e8d4;strokeColor=#82b366;sketch=1;curveFitting=1;jiggle=2;perimeterSpacing=0;" parent="1" vertex="1">
          <mxGeometry x="135" y="158" width="180" height="60" as="geometry" />
        </mxCell>
        <mxCell id="EWfOVBZDxmi8WCH7ohGd-9" value="&lt;b&gt;&lt;font style=&quot;font-size: 20px;&quot;&gt;Nom&lt;br&gt;&lt;/font&gt;&lt;/b&gt;" style="rounded=1;whiteSpace=wrap;html=1;fontSize=15;fillColor=#fff2cc;strokeColor=#d6b656;sketch=1;curveFitting=1;jiggle=2;" parent="1" vertex="1">
          <mxGeometry x="345" y="445" width="200" height="60" as="geometry" />
        </mxCell>
        <mxCell id="EWfOVBZDxmi8WCH7ohGd-10" value="&lt;b&gt;&lt;font style=&quot;font-size: 20px;&quot;&gt;Jack&lt;/font&gt;&lt;/b&gt;" style="rounded=1;whiteSpace=wrap;html=1;fontSize=15;fillColor=#fff2cc;strokeColor=#d6b656;sketch=1;curveFitting=1;jiggle=2;" parent="1" vertex="1">
          <mxGeometry x="565" y="445" width="200" height="60" as="geometry" />
        </mxCell>
        <mxCell id="EWfOVBZDxmi8WCH7ohGd-11" value="&lt;b&gt;&lt;font style=&quot;font-size: 20px;&quot;&gt;Justin&lt;/font&gt;&lt;/b&gt;" style="rounded=1;whiteSpace=wrap;html=1;fontSize=15;fillColor=#fff2cc;strokeColor=#d6b656;sketch=1;curveFitting=1;jiggle=2;" parent="1" vertex="1">
          <mxGeometry x="789" y="445" width="200" height="60" as="geometry" />
        </mxCell>
        <mxCell id="xO22qiTFhTRaszmlAYP1-1" value="&lt;b&gt;&lt;font style=&quot;font-size: 20px;&quot;&gt;Lona&lt;/font&gt;&lt;/b&gt;" style="rounded=1;whiteSpace=wrap;html=1;fontSize=15;fillColor=#fff2cc;strokeColor=#d6b656;sketch=1;curveFitting=1;jiggle=2;" parent="1" vertex="1">
          <mxGeometry x="1013" y="445" width="200" height="60" as="geometry" />
        </mxCell>
        <mxCell id="OiDS644HAsrFSR9pFIKz-3" value="" style="endArrow=none;html=1;rounded=0;strokeWidth=3;entryX=0.5;entryY=1;entryDx=0;entryDy=0;exitX=0.5;exitY=0;exitDx=0;exitDy=0;edgeStyle=orthogonalEdgeStyle;" edge="1" parent="1" source="OEdW_wdYPglEoqBex4Tl-28" target="OEdW_wdYPglEoqBex4Tl-1">
          <mxGeometry width="50" height="50" relative="1" as="geometry">
            <mxPoint x="-287" y="120" as="sourcePoint" />
            <mxPoint x="-237" y="70" as="targetPoint" />
          </mxGeometry>
        </mxCell>
        <mxCell id="OiDS644HAsrFSR9pFIKz-4" value="" style="endArrow=none;html=1;rounded=0;strokeWidth=3;edgeStyle=orthogonalEdgeStyle;entryX=0.5;entryY=1;entryDx=0;entryDy=0;exitX=0.5;exitY=0;exitDx=0;exitDy=0;" edge="1" parent="1" source="EWfOVBZDxmi8WCH7ohGd-5" target="OEdW_wdYPglEoqBex4Tl-1">
          <mxGeometry width="50" height="50" relative="1" as="geometry">
            <mxPoint x="-71" y="180" as="sourcePoint" />
            <mxPoint x="472" y="129" as="targetPoint" />
          </mxGeometry>
        </mxCell>
        <mxCell id="OiDS644HAsrFSR9pFIKz-8" value="" style="endArrow=none;html=1;rounded=0;strokeWidth=3;exitX=0.5;exitY=0;exitDx=0;exitDy=0;edgeStyle=orthogonalEdgeStyle;entryX=0.5;entryY=1;entryDx=0;entryDy=0;" edge="1" parent="1" source="EWfOVBZDxmi8WCH7ohGd-7" target="OEdW_wdYPglEoqBex4Tl-1">
          <mxGeometry width="50" height="50" relative="1" as="geometry">
            <mxPoint x="-645" y="168" as="sourcePoint" />
            <mxPoint x="628" y="122" as="targetPoint" />
            <Array as="points">
              <mxPoint x="225" y="117" />
              <mxPoint x="425" y="117" />
            </Array>
          </mxGeometry>
        </mxCell>
        <mxCell id="OiDS644HAsrFSR9pFIKz-10" value="" style="endArrow=none;html=1;rounded=0;edgeStyle=orthogonalEdgeStyle;strokeWidth=3;exitX=0.5;exitY=1;exitDx=0;exitDy=0;entryX=0.5;entryY=0;entryDx=0;entryDy=0;" edge="1" parent="1" source="OEdW_wdYPglEoqBex4Tl-1" target="EWfOVBZDxmi8WCH7ohGd-6">
          <mxGeometry width="50" height="50" relative="1" as="geometry">
            <mxPoint x="462" y="224" as="sourcePoint" />
            <mxPoint x="512" y="174" as="targetPoint" />
            <Array as="points">
              <mxPoint x="425" y="117" />
              <mxPoint x="655" y="117" />
            </Array>
          </mxGeometry>
        </mxCell>
        <mxCell id="OiDS644HAsrFSR9pFIKz-11" value="" style="endArrow=none;html=1;rounded=0;edgeStyle=orthogonalEdgeStyle;strokeWidth=3;exitX=0.5;exitY=1;exitDx=0;exitDy=0;entryX=0.5;entryY=0;entryDx=0;entryDy=0;" edge="1" parent="1" source="OEdW_wdYPglEoqBex4Tl-1" target="OEdW_wdYPglEoqBex4Tl-17">
          <mxGeometry width="50" height="50" relative="1" as="geometry">
            <mxPoint x="435" y="85" as="sourcePoint" />
            <mxPoint x="665" y="168" as="targetPoint" />
            <Array as="points">
              <mxPoint x="425" y="117" />
              <mxPoint x="1085" y="117" />
            </Array>
          </mxGeometry>
        </mxCell>
        <mxCell id="OiDS644HAsrFSR9pFIKz-12" value="&lt;b&gt;&lt;font style=&quot;font-size: 20px;&quot;&gt;Logo Game&lt;/font&gt;&lt;/b&gt;" style="rounded=1;whiteSpace=wrap;html=1;fontSize=15;fillColor=#d5e8d4;strokeColor=#82b366;sketch=1;curveFitting=1;jiggle=2;" vertex="1" parent="1">
          <mxGeometry x="1425" y="158" width="180" height="60" as="geometry" />
        </mxCell>
        <mxCell id="OiDS644HAsrFSR9pFIKz-13" value="" style="endArrow=none;html=1;rounded=0;edgeStyle=orthogonalEdgeStyle;strokeWidth=3;exitX=0.5;exitY=1;exitDx=0;exitDy=0;entryX=0.5;entryY=0;entryDx=0;entryDy=0;" edge="1" parent="1" source="OEdW_wdYPglEoqBex4Tl-1" target="OiDS644HAsrFSR9pFIKz-12">
          <mxGeometry width="50" height="50" relative="1" as="geometry">
            <mxPoint x="435" y="85" as="sourcePoint" />
            <mxPoint x="1095" y="168" as="targetPoint" />
            <Array as="points">
              <mxPoint x="435" y="75" />
              <mxPoint x="435" y="117" />
              <mxPoint x="1515" y="117" />
            </Array>
          </mxGeometry>
        </mxCell>
        <mxCell id="OiDS644HAsrFSR9pFIKz-14" value="" style="endArrow=none;html=1;rounded=0;exitX=0.5;exitY=0;exitDx=0;exitDy=0;entryX=0.5;entryY=1;entryDx=0;entryDy=0;strokeWidth=3;edgeStyle=orthogonalEdgeStyle;" edge="1" parent="1" source="OEdW_wdYPglEoqBex4Tl-16" target="EWfOVBZDxmi8WCH7ohGd-5">
          <mxGeometry width="50" height="50" relative="1" as="geometry">
            <mxPoint x="-313" y="699" as="sourcePoint" />
            <mxPoint x="-263" y="649" as="targetPoint" />
          </mxGeometry>
        </mxCell>
        <mxCell id="OiDS644HAsrFSR9pFIKz-15" value="" style="endArrow=none;html=1;rounded=0;exitX=0.5;exitY=0;exitDx=0;exitDy=0;entryX=0.5;entryY=1;entryDx=0;entryDy=0;strokeWidth=3;edgeStyle=orthogonalEdgeStyle;" edge="1" parent="1" source="OEdW_wdYPglEoqBex4Tl-12" target="EWfOVBZDxmi8WCH7ohGd-7">
          <mxGeometry width="50" height="50" relative="1" as="geometry">
            <mxPoint x="-195" y="306" as="sourcePoint" />
            <mxPoint x="-195" y="228" as="targetPoint" />
          </mxGeometry>
        </mxCell>
        <mxCell id="OiDS644HAsrFSR9pFIKz-16" value="" style="endArrow=none;html=1;rounded=0;exitX=0.5;exitY=0;exitDx=0;exitDy=0;entryX=0.5;entryY=1;entryDx=0;entryDy=0;strokeWidth=3;edgeStyle=orthogonalEdgeStyle;" edge="1" parent="1" source="OEdW_wdYPglEoqBex4Tl-13" target="EWfOVBZDxmi8WCH7ohGd-7">
          <mxGeometry width="50" height="50" relative="1" as="geometry">
            <mxPoint x="-195" y="306" as="sourcePoint" />
            <mxPoint x="-195" y="228" as="targetPoint" />
          </mxGeometry>
        </mxCell>
        <mxCell id="OiDS644HAsrFSR9pFIKz-17" value="" style="endArrow=none;html=1;rounded=0;exitX=0.5;exitY=0;exitDx=0;exitDy=0;entryX=0.5;entryY=1;entryDx=0;entryDy=0;strokeWidth=3;edgeStyle=orthogonalEdgeStyle;" edge="1" parent="1" source="OEdW_wdYPglEoqBex4Tl-14" target="EWfOVBZDxmi8WCH7ohGd-7">
          <mxGeometry width="50" height="50" relative="1" as="geometry">
            <mxPoint x="-195" y="306" as="sourcePoint" />
            <mxPoint x="-195" y="228" as="targetPoint" />
          </mxGeometry>
        </mxCell>
        <mxCell id="OiDS644HAsrFSR9pFIKz-18" value="" style="endArrow=none;html=1;rounded=0;exitX=0.5;exitY=0;exitDx=0;exitDy=0;entryX=0.5;entryY=1;entryDx=0;entryDy=0;strokeWidth=3;edgeStyle=orthogonalEdgeStyle;" edge="1" parent="1" source="EWfOVBZDxmi8WCH7ohGd-2" target="EWfOVBZDxmi8WCH7ohGd-6">
          <mxGeometry width="50" height="50" relative="1" as="geometry">
            <mxPoint x="-195" y="306" as="sourcePoint" />
            <mxPoint x="-195" y="228" as="targetPoint" />
            <Array as="points">
              <mxPoint x="655" y="244" />
              <mxPoint x="655" y="244" />
            </Array>
          </mxGeometry>
        </mxCell>
        <mxCell id="OiDS644HAsrFSR9pFIKz-19" value="&lt;b&gt;&lt;font style=&quot;font-size: 20px;&quot;&gt;Buy Characters&lt;/font&gt;&lt;/b&gt;" style="rounded=1;whiteSpace=wrap;html=1;fontSize=15;fillColor=#e1d5e7;strokeColor=#9673a6;sketch=1;curveFitting=1;jiggle=2;" vertex="1" parent="1">
          <mxGeometry x="785" y="293" width="200" height="60" as="geometry" />
        </mxCell>
        <mxCell id="OiDS644HAsrFSR9pFIKz-20" value="" style="endArrow=none;html=1;rounded=0;exitX=0.75;exitY=0;exitDx=0;exitDy=0;entryX=0.5;entryY=1;entryDx=0;entryDy=0;strokeWidth=3;edgeStyle=orthogonalEdgeStyle;" edge="1" parent="1" source="OiDS644HAsrFSR9pFIKz-19" target="EWfOVBZDxmi8WCH7ohGd-6">
          <mxGeometry width="50" height="50" relative="1" as="geometry">
            <mxPoint x="665" y="306" as="sourcePoint" />
            <mxPoint x="665" y="228" as="targetPoint" />
            <Array as="points">
              <mxPoint x="935" y="243" />
              <mxPoint x="655" y="243" />
            </Array>
          </mxGeometry>
        </mxCell>
        <mxCell id="OiDS644HAsrFSR9pFIKz-25" value="" style="endArrow=none;html=1;rounded=0;entryX=0.5;entryY=0;entryDx=0;entryDy=0;strokeWidth=3;edgeStyle=orthogonalEdgeStyle;exitX=0.5;exitY=1;exitDx=0;exitDy=0;" edge="1" parent="1" source="EWfOVBZDxmi8WCH7ohGd-2" target="EWfOVBZDxmi8WCH7ohGd-10">
          <mxGeometry width="50" height="50" relative="1" as="geometry">
            <mxPoint x="568" y="398" as="sourcePoint" />
            <mxPoint x="665" y="228" as="targetPoint" />
            <Array as="points">
              <mxPoint x="655" y="422" />
              <mxPoint x="665" y="422" />
            </Array>
          </mxGeometry>
        </mxCell>
        <mxCell id="OiDS644HAsrFSR9pFIKz-26" value="" style="endArrow=none;html=1;rounded=0;entryX=0.5;entryY=0;entryDx=0;entryDy=0;strokeWidth=3;edgeStyle=orthogonalEdgeStyle;exitX=0.5;exitY=1;exitDx=0;exitDy=0;" edge="1" parent="1" source="EWfOVBZDxmi8WCH7ohGd-2" target="EWfOVBZDxmi8WCH7ohGd-9">
          <mxGeometry width="50" height="50" relative="1" as="geometry">
            <mxPoint x="665" y="366" as="sourcePoint" />
            <mxPoint x="675" y="455" as="targetPoint" />
            <Array as="points">
              <mxPoint x="655" y="410" />
              <mxPoint x="445" y="410" />
            </Array>
          </mxGeometry>
        </mxCell>
        <mxCell id="OiDS644HAsrFSR9pFIKz-27" value="" style="endArrow=none;html=1;rounded=0;entryX=0.5;entryY=0;entryDx=0;entryDy=0;strokeWidth=3;edgeStyle=orthogonalEdgeStyle;exitX=0.5;exitY=1;exitDx=0;exitDy=0;" edge="1" parent="1" source="EWfOVBZDxmi8WCH7ohGd-2" target="EWfOVBZDxmi8WCH7ohGd-11">
          <mxGeometry width="50" height="50" relative="1" as="geometry">
            <mxPoint x="665" y="366" as="sourcePoint" />
            <mxPoint x="455" y="455" as="targetPoint" />
            <Array as="points">
              <mxPoint x="655" y="410" />
              <mxPoint x="889" y="410" />
            </Array>
          </mxGeometry>
        </mxCell>
        <mxCell id="OiDS644HAsrFSR9pFIKz-28" value="" style="endArrow=none;html=1;rounded=0;entryX=0.5;entryY=0;entryDx=0;entryDy=0;strokeWidth=3;edgeStyle=orthogonalEdgeStyle;exitX=0.5;exitY=1;exitDx=0;exitDy=0;" edge="1" parent="1" source="EWfOVBZDxmi8WCH7ohGd-2" target="xO22qiTFhTRaszmlAYP1-1">
          <mxGeometry width="50" height="50" relative="1" as="geometry">
            <mxPoint x="665" y="366" as="sourcePoint" />
            <mxPoint x="899" y="455" as="targetPoint" />
            <Array as="points">
              <mxPoint x="655" y="410" />
              <mxPoint x="1113" y="410" />
            </Array>
          </mxGeometry>
        </mxCell>
        <mxCell id="OiDS644HAsrFSR9pFIKz-29" value="" style="endArrow=none;html=1;rounded=0;exitX=0.5;exitY=0;exitDx=0;exitDy=0;entryX=0.5;entryY=1;entryDx=0;entryDy=0;strokeWidth=3;edgeStyle=orthogonalEdgeStyle;" edge="1" parent="1" source="7zV-X1jxaikb9Xa2PMb--27" target="EWfOVBZDxmi8WCH7ohGd-9">
          <mxGeometry width="50" height="50" relative="1" as="geometry">
            <mxPoint x="665" y="306" as="sourcePoint" />
            <mxPoint x="665" y="228" as="targetPoint" />
            <Array as="points">
              <mxPoint x="440" y="528" />
              <mxPoint x="445" y="528" />
            </Array>
          </mxGeometry>
        </mxCell>
        <mxCell id="OiDS644HAsrFSR9pFIKz-31" value="" style="endArrow=none;html=1;rounded=0;exitX=0.5;exitY=0;exitDx=0;exitDy=0;strokeWidth=3;edgeStyle=orthogonalEdgeStyle;entryX=0.5;entryY=1;entryDx=0;entryDy=0;" edge="1" parent="1" source="7zV-X1jxaikb9Xa2PMb--24" target="EWfOVBZDxmi8WCH7ohGd-9">
          <mxGeometry width="50" height="50" relative="1" as="geometry">
            <mxPoint x="450" y="562" as="sourcePoint" />
            <mxPoint x="447" y="508" as="targetPoint" />
            <Array as="points">
              <mxPoint x="665" y="528" />
              <mxPoint x="445" y="528" />
            </Array>
          </mxGeometry>
        </mxCell>
        <mxCell id="OiDS644HAsrFSR9pFIKz-32" value="" style="endArrow=none;html=1;rounded=0;exitX=0.5;exitY=0;exitDx=0;exitDy=0;strokeWidth=3;edgeStyle=orthogonalEdgeStyle;entryX=0.5;entryY=1;entryDx=0;entryDy=0;" edge="1" parent="1" source="7zV-X1jxaikb9Xa2PMb--13" target="EWfOVBZDxmi8WCH7ohGd-9">
          <mxGeometry width="50" height="50" relative="1" as="geometry">
            <mxPoint x="675" y="562" as="sourcePoint" />
            <mxPoint x="455" y="515" as="targetPoint" />
            <Array as="points">
              <mxPoint x="889" y="527" />
              <mxPoint x="445" y="527" />
            </Array>
          </mxGeometry>
        </mxCell>
        <mxCell id="OiDS644HAsrFSR9pFIKz-33" value="" style="endArrow=none;html=1;rounded=0;exitX=0.5;exitY=0;exitDx=0;exitDy=0;strokeWidth=3;edgeStyle=orthogonalEdgeStyle;entryX=0.5;entryY=1;entryDx=0;entryDy=0;" edge="1" parent="1" source="7zV-X1jxaikb9Xa2PMb--15" target="EWfOVBZDxmi8WCH7ohGd-9">
          <mxGeometry width="50" height="50" relative="1" as="geometry">
            <mxPoint x="899" y="562" as="sourcePoint" />
            <mxPoint x="455" y="515" as="targetPoint" />
            <Array as="points">
              <mxPoint x="1113" y="527" />
              <mxPoint x="445" y="527" />
            </Array>
          </mxGeometry>
        </mxCell>
        <mxCell id="OiDS644HAsrFSR9pFIKz-34" value="" style="endArrow=none;html=1;rounded=0;exitX=0.5;exitY=0;exitDx=0;exitDy=0;entryX=0.5;entryY=1;entryDx=0;entryDy=0;strokeWidth=3;edgeStyle=orthogonalEdgeStyle;" edge="1" parent="1" source="7zV-X1jxaikb9Xa2PMb--27" target="EWfOVBZDxmi8WCH7ohGd-10">
          <mxGeometry width="50" height="50" relative="1" as="geometry">
            <mxPoint x="665" y="306" as="sourcePoint" />
            <mxPoint x="665" y="228" as="targetPoint" />
            <Array as="points">
              <mxPoint x="440" y="515" />
              <mxPoint x="665" y="515" />
            </Array>
          </mxGeometry>
        </mxCell>
        <mxCell id="OiDS644HAsrFSR9pFIKz-35" value="" style="endArrow=none;html=1;rounded=0;exitX=0.5;exitY=0;exitDx=0;exitDy=0;entryX=0.5;entryY=1;entryDx=0;entryDy=0;strokeWidth=3;edgeStyle=orthogonalEdgeStyle;" edge="1" parent="1" source="7zV-X1jxaikb9Xa2PMb--24" target="EWfOVBZDxmi8WCH7ohGd-10">
          <mxGeometry width="50" height="50" relative="1" as="geometry">
            <mxPoint x="450" y="562" as="sourcePoint" />
            <mxPoint x="675" y="515" as="targetPoint" />
            <Array as="points">
              <mxPoint x="665" y="516" />
              <mxPoint x="665" y="516" />
            </Array>
          </mxGeometry>
        </mxCell>
        <mxCell id="OiDS644HAsrFSR9pFIKz-36" value="" style="endArrow=none;html=1;rounded=0;exitX=0.5;exitY=0;exitDx=0;exitDy=0;entryX=0.5;entryY=1;entryDx=0;entryDy=0;strokeWidth=3;edgeStyle=orthogonalEdgeStyle;" edge="1" parent="1" source="7zV-X1jxaikb9Xa2PMb--13" target="EWfOVBZDxmi8WCH7ohGd-10">
          <mxGeometry width="50" height="50" relative="1" as="geometry">
            <mxPoint x="675" y="562" as="sourcePoint" />
            <mxPoint x="675" y="515" as="targetPoint" />
            <Array as="points">
              <mxPoint x="889" y="515" />
              <mxPoint x="665" y="515" />
            </Array>
          </mxGeometry>
        </mxCell>
        <mxCell id="OiDS644HAsrFSR9pFIKz-37" value="" style="endArrow=none;html=1;rounded=0;exitX=0.5;exitY=0;exitDx=0;exitDy=0;entryX=0.5;entryY=1;entryDx=0;entryDy=0;strokeWidth=3;edgeStyle=orthogonalEdgeStyle;" edge="1" parent="1" source="7zV-X1jxaikb9Xa2PMb--15" target="EWfOVBZDxmi8WCH7ohGd-10">
          <mxGeometry width="50" height="50" relative="1" as="geometry">
            <mxPoint x="899" y="562" as="sourcePoint" />
            <mxPoint x="675" y="515" as="targetPoint" />
            <Array as="points">
              <mxPoint x="1113" y="515" />
              <mxPoint x="665" y="515" />
            </Array>
          </mxGeometry>
        </mxCell>
        <mxCell id="OiDS644HAsrFSR9pFIKz-38" value="" style="endArrow=none;html=1;rounded=0;exitX=0.5;exitY=0;exitDx=0;exitDy=0;entryX=0.5;entryY=1;entryDx=0;entryDy=0;strokeWidth=3;edgeStyle=orthogonalEdgeStyle;" edge="1" parent="1" source="7zV-X1jxaikb9Xa2PMb--27" target="EWfOVBZDxmi8WCH7ohGd-11">
          <mxGeometry width="50" height="50" relative="1" as="geometry">
            <mxPoint x="676" y="603" as="sourcePoint" />
            <mxPoint x="675" y="515" as="targetPoint" />
            <Array as="points">
              <mxPoint x="439" y="593" />
              <mxPoint x="439" y="542" />
              <mxPoint x="889" y="542" />
            </Array>
          </mxGeometry>
        </mxCell>
        <mxCell id="OiDS644HAsrFSR9pFIKz-39" value="" style="endArrow=none;html=1;rounded=0;exitX=0.5;exitY=0;exitDx=0;exitDy=0;entryX=0.5;entryY=1;entryDx=0;entryDy=0;strokeWidth=3;edgeStyle=orthogonalEdgeStyle;" edge="1" parent="1" source="7zV-X1jxaikb9Xa2PMb--24" target="EWfOVBZDxmi8WCH7ohGd-11">
          <mxGeometry width="50" height="50" relative="1" as="geometry">
            <mxPoint x="451" y="603" as="sourcePoint" />
            <mxPoint x="899" y="515" as="targetPoint" />
            <Array as="points">
              <mxPoint x="666" y="543" />
              <mxPoint x="889" y="543" />
            </Array>
          </mxGeometry>
        </mxCell>
        <mxCell id="OiDS644HAsrFSR9pFIKz-40" value="" style="endArrow=none;html=1;rounded=0;exitX=0.5;exitY=0;exitDx=0;exitDy=0;entryX=0.5;entryY=1;entryDx=0;entryDy=0;strokeWidth=3;edgeStyle=orthogonalEdgeStyle;" edge="1" parent="1" source="7zV-X1jxaikb9Xa2PMb--13" target="EWfOVBZDxmi8WCH7ohGd-11">
          <mxGeometry width="50" height="50" relative="1" as="geometry">
            <mxPoint x="780" y="762" as="sourcePoint" />
            <mxPoint x="779" y="674" as="targetPoint" />
            <Array as="points">
              <mxPoint x="889" y="593" />
            </Array>
          </mxGeometry>
        </mxCell>
        <mxCell id="OiDS644HAsrFSR9pFIKz-41" value="" style="endArrow=none;html=1;rounded=0;exitX=0.5;exitY=0;exitDx=0;exitDy=0;entryX=0.5;entryY=1;entryDx=0;entryDy=0;strokeWidth=3;edgeStyle=orthogonalEdgeStyle;" edge="1" parent="1" source="7zV-X1jxaikb9Xa2PMb--15" target="EWfOVBZDxmi8WCH7ohGd-11">
          <mxGeometry width="50" height="50" relative="1" as="geometry">
            <mxPoint x="1007" y="632" as="sourcePoint" />
            <mxPoint x="1006" y="544" as="targetPoint" />
            <Array as="points">
              <mxPoint x="1113" y="593" />
              <mxPoint x="1113" y="542" />
              <mxPoint x="889" y="542" />
            </Array>
          </mxGeometry>
        </mxCell>
        <mxCell id="OiDS644HAsrFSR9pFIKz-42" value="" style="endArrow=none;html=1;rounded=0;exitX=0.5;exitY=0;exitDx=0;exitDy=0;entryX=0.5;entryY=1;entryDx=0;entryDy=0;strokeWidth=3;edgeStyle=orthogonalEdgeStyle;" edge="1" parent="1" source="7zV-X1jxaikb9Xa2PMb--15" target="xO22qiTFhTRaszmlAYP1-1">
          <mxGeometry width="50" height="50" relative="1" as="geometry">
            <mxPoint x="900" y="603" as="sourcePoint" />
            <mxPoint x="899" y="515" as="targetPoint" />
            <Array as="points">
              <mxPoint x="1113" y="505" />
            </Array>
          </mxGeometry>
        </mxCell>
        <mxCell id="OiDS644HAsrFSR9pFIKz-43" value="" style="endArrow=none;html=1;rounded=0;exitX=0.5;exitY=0;exitDx=0;exitDy=0;entryX=0.5;entryY=1;entryDx=0;entryDy=0;strokeWidth=3;edgeStyle=orthogonalEdgeStyle;" edge="1" parent="1" source="7zV-X1jxaikb9Xa2PMb--13" target="xO22qiTFhTRaszmlAYP1-1">
          <mxGeometry width="50" height="50" relative="1" as="geometry">
            <mxPoint x="1124" y="603" as="sourcePoint" />
            <mxPoint x="1123" y="515" as="targetPoint" />
            <Array as="points">
              <mxPoint x="890" y="560" />
              <mxPoint x="1113" y="560" />
            </Array>
          </mxGeometry>
        </mxCell>
        <mxCell id="OiDS644HAsrFSR9pFIKz-44" value="" style="endArrow=none;html=1;rounded=0;exitX=0.5;exitY=0;exitDx=0;exitDy=0;entryX=0.5;entryY=1;entryDx=0;entryDy=0;strokeWidth=3;edgeStyle=orthogonalEdgeStyle;" edge="1" parent="1" source="7zV-X1jxaikb9Xa2PMb--24" target="xO22qiTFhTRaszmlAYP1-1">
          <mxGeometry width="50" height="50" relative="1" as="geometry">
            <mxPoint x="1124" y="603" as="sourcePoint" />
            <mxPoint x="1123" y="515" as="targetPoint" />
            <Array as="points">
              <mxPoint x="666" y="561" />
              <mxPoint x="1113" y="561" />
            </Array>
          </mxGeometry>
        </mxCell>
        <mxCell id="OiDS644HAsrFSR9pFIKz-46" value="" style="endArrow=none;html=1;rounded=0;exitX=0.5;exitY=0;exitDx=0;exitDy=0;entryX=0.5;entryY=1;entryDx=0;entryDy=0;strokeWidth=3;edgeStyle=orthogonalEdgeStyle;" edge="1" parent="1" source="7zV-X1jxaikb9Xa2PMb--27" target="xO22qiTFhTRaszmlAYP1-1">
          <mxGeometry width="50" height="50" relative="1" as="geometry">
            <mxPoint x="900" y="603" as="sourcePoint" />
            <mxPoint x="899" y="515" as="targetPoint" />
            <Array as="points">
              <mxPoint x="441" y="561" />
              <mxPoint x="1113" y="561" />
            </Array>
          </mxGeometry>
        </mxCell>
        <mxCell id="OiDS644HAsrFSR9pFIKz-48" value="" style="endArrow=none;html=1;rounded=0;entryX=0.5;entryY=1;entryDx=0;entryDy=0;strokeWidth=3;edgeStyle=orthogonalEdgeStyle;exitX=0.5;exitY=0;exitDx=0;exitDy=0;" edge="1" parent="1" source="OEdW_wdYPglEoqBex4Tl-43" target="OEdW_wdYPglEoqBex4Tl-12">
          <mxGeometry width="50" height="50" relative="1" as="geometry">
            <mxPoint x="-522" y="395" as="sourcePoint" />
            <mxPoint x="235" y="228" as="targetPoint" />
          </mxGeometry>
        </mxCell>
        <mxCell id="OiDS644HAsrFSR9pFIKz-49" value="" style="endArrow=none;html=1;rounded=0;entryX=0.5;entryY=1;entryDx=0;entryDy=0;strokeWidth=3;edgeStyle=orthogonalEdgeStyle;exitX=0.5;exitY=0;exitDx=0;exitDy=0;" edge="1" parent="1" source="EWfOVBZDxmi8WCH7ohGd-1" target="OEdW_wdYPglEoqBex4Tl-12">
          <mxGeometry width="50" height="50" relative="1" as="geometry">
            <mxPoint x="-717" y="455" as="sourcePoint" />
            <mxPoint x="24" y="366" as="targetPoint" />
          </mxGeometry>
        </mxCell>
        <mxCell id="OiDS644HAsrFSR9pFIKz-50" value="" style="endArrow=none;html=1;rounded=0;entryX=0.5;entryY=1;entryDx=0;entryDy=0;strokeWidth=3;edgeStyle=orthogonalEdgeStyle;exitX=0.5;exitY=0;exitDx=0;exitDy=0;" edge="1" parent="1" source="OEdW_wdYPglEoqBex4Tl-42" target="OEdW_wdYPglEoqBex4Tl-12">
          <mxGeometry width="50" height="50" relative="1" as="geometry">
            <mxPoint x="-526" y="455" as="sourcePoint" />
            <mxPoint x="24" y="366" as="targetPoint" />
          </mxGeometry>
        </mxCell>
        <mxCell id="OiDS644HAsrFSR9pFIKz-51" value="" style="endArrow=none;html=1;rounded=0;entryX=0.5;entryY=1;entryDx=0;entryDy=0;strokeWidth=3;edgeStyle=orthogonalEdgeStyle;exitX=0.5;exitY=0;exitDx=0;exitDy=0;" edge="1" parent="1" source="OEdW_wdYPglEoqBex4Tl-55" target="OEdW_wdYPglEoqBex4Tl-12">
          <mxGeometry width="50" height="50" relative="1" as="geometry">
            <mxPoint x="-335" y="455" as="sourcePoint" />
            <mxPoint x="24" y="366" as="targetPoint" />
          </mxGeometry>
        </mxCell>
        <mxCell id="OiDS644HAsrFSR9pFIKz-52" value="" style="endArrow=none;html=1;rounded=0;entryX=0.5;entryY=1;entryDx=0;entryDy=0;strokeWidth=3;edgeStyle=orthogonalEdgeStyle;exitX=0.5;exitY=0;exitDx=0;exitDy=0;" edge="1" parent="1" source="OEdW_wdYPglEoqBex4Tl-56" target="OEdW_wdYPglEoqBex4Tl-12">
          <mxGeometry width="50" height="50" relative="1" as="geometry">
            <mxPoint x="-144" y="455" as="sourcePoint" />
            <mxPoint x="24" y="366" as="targetPoint" />
          </mxGeometry>
        </mxCell>
        <mxCell id="OiDS644HAsrFSR9pFIKz-53" value="" style="endArrow=none;html=1;rounded=0;entryX=0.5;entryY=1;entryDx=0;entryDy=0;strokeWidth=3;edgeStyle=orthogonalEdgeStyle;exitX=0.5;exitY=0;exitDx=0;exitDy=0;" edge="1" parent="1" source="OEdW_wdYPglEoqBex4Tl-54" target="OEdW_wdYPglEoqBex4Tl-12">
          <mxGeometry width="50" height="50" relative="1" as="geometry">
            <mxPoint x="47" y="455" as="sourcePoint" />
            <mxPoint x="24" y="366" as="targetPoint" />
          </mxGeometry>
        </mxCell>
        <mxCell id="OiDS644HAsrFSR9pFIKz-54" value="" style="endArrow=none;html=1;rounded=0;entryX=0.5;entryY=1;entryDx=0;entryDy=0;strokeWidth=3;edgeStyle=orthogonalEdgeStyle;exitX=0.5;exitY=0;exitDx=0;exitDy=0;" edge="1" parent="1" source="EWfOVBZDxmi8WCH7ohGd-9" target="OEdW_wdYPglEoqBex4Tl-12">
          <mxGeometry width="50" height="50" relative="1" as="geometry">
            <mxPoint x="235" y="455" as="sourcePoint" />
            <mxPoint x="24" y="366" as="targetPoint" />
          </mxGeometry>
        </mxCell>
        <mxCell id="OiDS644HAsrFSR9pFIKz-55" value="" style="endArrow=none;html=1;rounded=0;entryX=0.5;entryY=1;entryDx=0;entryDy=0;strokeWidth=3;edgeStyle=orthogonalEdgeStyle;exitX=0.5;exitY=0;exitDx=0;exitDy=0;" edge="1" parent="1" source="EWfOVBZDxmi8WCH7ohGd-10" target="OEdW_wdYPglEoqBex4Tl-12">
          <mxGeometry width="50" height="50" relative="1" as="geometry">
            <mxPoint x="455" y="455" as="sourcePoint" />
            <mxPoint x="24" y="366" as="targetPoint" />
          </mxGeometry>
        </mxCell>
        <mxCell id="OiDS644HAsrFSR9pFIKz-56" value="" style="endArrow=none;html=1;rounded=0;entryX=0.5;entryY=1;entryDx=0;entryDy=0;strokeWidth=3;edgeStyle=orthogonalEdgeStyle;exitX=0.5;exitY=0;exitDx=0;exitDy=0;" edge="1" parent="1" source="EWfOVBZDxmi8WCH7ohGd-11" target="OEdW_wdYPglEoqBex4Tl-12">
          <mxGeometry width="50" height="50" relative="1" as="geometry">
            <mxPoint x="675" y="455" as="sourcePoint" />
            <mxPoint x="24" y="366" as="targetPoint" />
          </mxGeometry>
        </mxCell>
        <mxCell id="OiDS644HAsrFSR9pFIKz-57" value="" style="endArrow=none;html=1;rounded=0;entryX=0.5;entryY=1;entryDx=0;entryDy=0;strokeWidth=3;edgeStyle=orthogonalEdgeStyle;exitX=0.5;exitY=0;exitDx=0;exitDy=0;" edge="1" parent="1" source="xO22qiTFhTRaszmlAYP1-1" target="OEdW_wdYPglEoqBex4Tl-12">
          <mxGeometry width="50" height="50" relative="1" as="geometry">
            <mxPoint x="899" y="455" as="sourcePoint" />
            <mxPoint x="24" y="366" as="targetPoint" />
          </mxGeometry>
        </mxCell>
        <mxCell id="OiDS644HAsrFSR9pFIKz-59" value="" style="endArrow=none;html=1;rounded=0;entryX=0.5;entryY=1;entryDx=0;entryDy=0;strokeWidth=3;edgeStyle=orthogonalEdgeStyle;exitX=0.5;exitY=0;exitDx=0;exitDy=0;" edge="1" parent="1" source="xO22qiTFhTRaszmlAYP1-1" target="OEdW_wdYPglEoqBex4Tl-13">
          <mxGeometry width="50" height="50" relative="1" as="geometry">
            <mxPoint x="1123" y="455" as="sourcePoint" />
            <mxPoint x="24" y="366" as="targetPoint" />
          </mxGeometry>
        </mxCell>
        <mxCell id="OiDS644HAsrFSR9pFIKz-62" value="" style="endArrow=none;html=1;rounded=0;strokeWidth=3;edgeStyle=orthogonalEdgeStyle;exitX=0.5;exitY=0;exitDx=0;exitDy=0;entryX=0.5;entryY=1;entryDx=0;entryDy=0;" edge="1" parent="1" source="EWfOVBZDxmi8WCH7ohGd-11" target="OEdW_wdYPglEoqBex4Tl-13">
          <mxGeometry width="50" height="50" relative="1" as="geometry">
            <mxPoint x="1123" y="455" as="sourcePoint" />
            <mxPoint x="224" y="360" as="targetPoint" />
          </mxGeometry>
        </mxCell>
        <mxCell id="OiDS644HAsrFSR9pFIKz-63" value="" style="endArrow=none;html=1;rounded=0;strokeWidth=3;edgeStyle=orthogonalEdgeStyle;exitX=0.5;exitY=0;exitDx=0;exitDy=0;entryX=0.5;entryY=1;entryDx=0;entryDy=0;" edge="1" parent="1" source="EWfOVBZDxmi8WCH7ohGd-10" target="OEdW_wdYPglEoqBex4Tl-13">
          <mxGeometry width="50" height="50" relative="1" as="geometry">
            <mxPoint x="899" y="455" as="sourcePoint" />
            <mxPoint x="235" y="366" as="targetPoint" />
          </mxGeometry>
        </mxCell>
        <mxCell id="OiDS644HAsrFSR9pFIKz-64" value="" style="endArrow=none;html=1;rounded=0;strokeWidth=3;edgeStyle=orthogonalEdgeStyle;exitX=0.5;exitY=0;exitDx=0;exitDy=0;entryX=0.5;entryY=1;entryDx=0;entryDy=0;" edge="1" parent="1" source="EWfOVBZDxmi8WCH7ohGd-9" target="OEdW_wdYPglEoqBex4Tl-13">
          <mxGeometry width="50" height="50" relative="1" as="geometry">
            <mxPoint x="675" y="455" as="sourcePoint" />
            <mxPoint x="235" y="366" as="targetPoint" />
          </mxGeometry>
        </mxCell>
        <mxCell id="OiDS644HAsrFSR9pFIKz-65" value="" style="endArrow=none;html=1;rounded=0;strokeWidth=3;edgeStyle=orthogonalEdgeStyle;exitX=0.5;exitY=0;exitDx=0;exitDy=0;entryX=0.5;entryY=1;entryDx=0;entryDy=0;" edge="1" parent="1" source="OEdW_wdYPglEoqBex4Tl-54" target="OEdW_wdYPglEoqBex4Tl-13">
          <mxGeometry width="50" height="50" relative="1" as="geometry">
            <mxPoint x="455" y="455" as="sourcePoint" />
            <mxPoint x="235" y="366" as="targetPoint" />
          </mxGeometry>
        </mxCell>
        <mxCell id="OiDS644HAsrFSR9pFIKz-66" value="" style="endArrow=none;html=1;rounded=0;strokeWidth=3;edgeStyle=orthogonalEdgeStyle;exitX=0.5;exitY=0;exitDx=0;exitDy=0;entryX=0.5;entryY=1;entryDx=0;entryDy=0;" edge="1" parent="1" source="OEdW_wdYPglEoqBex4Tl-56" target="OEdW_wdYPglEoqBex4Tl-13">
          <mxGeometry width="50" height="50" relative="1" as="geometry">
            <mxPoint x="235" y="455" as="sourcePoint" />
            <mxPoint x="235" y="366" as="targetPoint" />
          </mxGeometry>
        </mxCell>
        <mxCell id="OiDS644HAsrFSR9pFIKz-67" value="" style="endArrow=none;html=1;rounded=0;strokeWidth=3;edgeStyle=orthogonalEdgeStyle;exitX=0.5;exitY=0;exitDx=0;exitDy=0;entryX=0.5;entryY=1;entryDx=0;entryDy=0;" edge="1" parent="1" source="OEdW_wdYPglEoqBex4Tl-55" target="OEdW_wdYPglEoqBex4Tl-13">
          <mxGeometry width="50" height="50" relative="1" as="geometry">
            <mxPoint x="47" y="455" as="sourcePoint" />
            <mxPoint x="235" y="366" as="targetPoint" />
          </mxGeometry>
        </mxCell>
        <mxCell id="OiDS644HAsrFSR9pFIKz-68" value="" style="endArrow=none;html=1;rounded=0;strokeWidth=3;edgeStyle=orthogonalEdgeStyle;exitX=0.5;exitY=0;exitDx=0;exitDy=0;entryX=0.5;entryY=1;entryDx=0;entryDy=0;" edge="1" parent="1" source="OEdW_wdYPglEoqBex4Tl-42" target="OEdW_wdYPglEoqBex4Tl-13">
          <mxGeometry width="50" height="50" relative="1" as="geometry">
            <mxPoint x="-144" y="455" as="sourcePoint" />
            <mxPoint x="235" y="366" as="targetPoint" />
          </mxGeometry>
        </mxCell>
        <mxCell id="OiDS644HAsrFSR9pFIKz-69" value="" style="endArrow=none;html=1;rounded=0;strokeWidth=3;edgeStyle=orthogonalEdgeStyle;exitX=0.5;exitY=0;exitDx=0;exitDy=0;entryX=0.5;entryY=1;entryDx=0;entryDy=0;" edge="1" parent="1" source="EWfOVBZDxmi8WCH7ohGd-1" target="OEdW_wdYPglEoqBex4Tl-13">
          <mxGeometry width="50" height="50" relative="1" as="geometry">
            <mxPoint x="-335" y="455" as="sourcePoint" />
            <mxPoint x="235" y="366" as="targetPoint" />
          </mxGeometry>
        </mxCell>
        <mxCell id="OiDS644HAsrFSR9pFIKz-70" value="" style="endArrow=none;html=1;rounded=0;strokeWidth=3;edgeStyle=orthogonalEdgeStyle;exitX=0.5;exitY=0;exitDx=0;exitDy=0;entryX=0.5;entryY=1;entryDx=0;entryDy=0;" edge="1" parent="1" source="OEdW_wdYPglEoqBex4Tl-43" target="OEdW_wdYPglEoqBex4Tl-13">
          <mxGeometry width="50" height="50" relative="1" as="geometry">
            <mxPoint x="-526" y="455" as="sourcePoint" />
            <mxPoint x="235" y="366" as="targetPoint" />
          </mxGeometry>
        </mxCell>
        <mxCell id="OiDS644HAsrFSR9pFIKz-71" value="" style="endArrow=none;html=1;rounded=0;strokeWidth=3;edgeStyle=orthogonalEdgeStyle;exitX=0.5;exitY=0;exitDx=0;exitDy=0;entryX=0.5;entryY=1;entryDx=0;entryDy=0;" edge="1" parent="1" source="OEdW_wdYPglEoqBex4Tl-43" target="OEdW_wdYPglEoqBex4Tl-14">
          <mxGeometry width="50" height="50" relative="1" as="geometry">
            <mxPoint x="235" y="455" as="sourcePoint" />
            <mxPoint x="235" y="366" as="targetPoint" />
          </mxGeometry>
        </mxCell>
        <mxCell id="OiDS644HAsrFSR9pFIKz-72" value="" style="endArrow=none;html=1;rounded=0;strokeWidth=3;edgeStyle=orthogonalEdgeStyle;exitX=0.5;exitY=0;exitDx=0;exitDy=0;" edge="1" parent="1" source="EWfOVBZDxmi8WCH7ohGd-1" target="OEdW_wdYPglEoqBex4Tl-14">
          <mxGeometry width="50" height="50" relative="1" as="geometry">
            <mxPoint x="-532" y="340" as="sourcePoint" />
            <mxPoint x="445" y="366" as="targetPoint" />
          </mxGeometry>
        </mxCell>
        <mxCell id="OiDS644HAsrFSR9pFIKz-73" value="" style="endArrow=none;html=1;rounded=0;strokeWidth=3;edgeStyle=orthogonalEdgeStyle;exitX=0.5;exitY=0;exitDx=0;exitDy=0;entryX=0.5;entryY=1;entryDx=0;entryDy=0;" edge="1" parent="1" source="OEdW_wdYPglEoqBex4Tl-42" target="OEdW_wdYPglEoqBex4Tl-14">
          <mxGeometry width="50" height="50" relative="1" as="geometry">
            <mxPoint x="-365" y="580" as="sourcePoint" />
            <mxPoint x="445" y="366" as="targetPoint" />
          </mxGeometry>
        </mxCell>
        <mxCell id="OiDS644HAsrFSR9pFIKz-74" value="" style="endArrow=none;html=1;rounded=0;strokeWidth=3;edgeStyle=orthogonalEdgeStyle;exitX=0.5;exitY=0;exitDx=0;exitDy=0;entryX=0.5;entryY=1;entryDx=0;entryDy=0;" edge="1" parent="1" source="OEdW_wdYPglEoqBex4Tl-55" target="OEdW_wdYPglEoqBex4Tl-14">
          <mxGeometry width="50" height="50" relative="1" as="geometry">
            <mxPoint x="-335" y="455" as="sourcePoint" />
            <mxPoint x="445" y="366" as="targetPoint" />
          </mxGeometry>
        </mxCell>
        <mxCell id="OiDS644HAsrFSR9pFIKz-75" value="" style="endArrow=none;html=1;rounded=0;strokeWidth=3;edgeStyle=orthogonalEdgeStyle;exitX=0.5;exitY=0;exitDx=0;exitDy=0;entryX=0.5;entryY=1;entryDx=0;entryDy=0;" edge="1" parent="1" source="OEdW_wdYPglEoqBex4Tl-56" target="OEdW_wdYPglEoqBex4Tl-14">
          <mxGeometry width="50" height="50" relative="1" as="geometry">
            <mxPoint x="-144" y="455" as="sourcePoint" />
            <mxPoint x="445" y="366" as="targetPoint" />
          </mxGeometry>
        </mxCell>
        <mxCell id="OiDS644HAsrFSR9pFIKz-76" value="" style="endArrow=none;html=1;rounded=0;strokeWidth=3;edgeStyle=orthogonalEdgeStyle;exitX=0.5;exitY=0;exitDx=0;exitDy=0;entryX=0.5;entryY=1;entryDx=0;entryDy=0;" edge="1" parent="1" source="OEdW_wdYPglEoqBex4Tl-54" target="OEdW_wdYPglEoqBex4Tl-14">
          <mxGeometry width="50" height="50" relative="1" as="geometry">
            <mxPoint x="47" y="455" as="sourcePoint" />
            <mxPoint x="445" y="366" as="targetPoint" />
          </mxGeometry>
        </mxCell>
        <mxCell id="OiDS644HAsrFSR9pFIKz-77" value="" style="endArrow=none;html=1;rounded=0;strokeWidth=3;edgeStyle=orthogonalEdgeStyle;exitX=0.5;exitY=0;exitDx=0;exitDy=0;entryX=0.5;entryY=1;entryDx=0;entryDy=0;" edge="1" parent="1" source="EWfOVBZDxmi8WCH7ohGd-9" target="OEdW_wdYPglEoqBex4Tl-14">
          <mxGeometry width="50" height="50" relative="1" as="geometry">
            <mxPoint x="235" y="455" as="sourcePoint" />
            <mxPoint x="445" y="366" as="targetPoint" />
          </mxGeometry>
        </mxCell>
        <mxCell id="OiDS644HAsrFSR9pFIKz-78" value="" style="endArrow=none;html=1;rounded=0;strokeWidth=3;edgeStyle=orthogonalEdgeStyle;exitX=0.5;exitY=0;exitDx=0;exitDy=0;entryX=0.5;entryY=1;entryDx=0;entryDy=0;" edge="1" parent="1" source="EWfOVBZDxmi8WCH7ohGd-10" target="OEdW_wdYPglEoqBex4Tl-14">
          <mxGeometry width="50" height="50" relative="1" as="geometry">
            <mxPoint x="455" y="455" as="sourcePoint" />
            <mxPoint x="445" y="366" as="targetPoint" />
          </mxGeometry>
        </mxCell>
        <mxCell id="OiDS644HAsrFSR9pFIKz-79" value="" style="endArrow=none;html=1;rounded=0;strokeWidth=3;edgeStyle=orthogonalEdgeStyle;exitX=0.5;exitY=0;exitDx=0;exitDy=0;entryX=0.5;entryY=1;entryDx=0;entryDy=0;" edge="1" parent="1" source="EWfOVBZDxmi8WCH7ohGd-11" target="OEdW_wdYPglEoqBex4Tl-14">
          <mxGeometry width="50" height="50" relative="1" as="geometry">
            <mxPoint x="675" y="455" as="sourcePoint" />
            <mxPoint x="445" y="366" as="targetPoint" />
          </mxGeometry>
        </mxCell>
        <mxCell id="OiDS644HAsrFSR9pFIKz-80" value="" style="endArrow=none;html=1;rounded=0;strokeWidth=3;edgeStyle=orthogonalEdgeStyle;exitX=0.5;exitY=0;exitDx=0;exitDy=0;entryX=0.5;entryY=1;entryDx=0;entryDy=0;" edge="1" parent="1" source="xO22qiTFhTRaszmlAYP1-1" target="OEdW_wdYPglEoqBex4Tl-14">
          <mxGeometry width="50" height="50" relative="1" as="geometry">
            <mxPoint x="899" y="455" as="sourcePoint" />
            <mxPoint x="445" y="366" as="targetPoint" />
          </mxGeometry>
        </mxCell>
        <mxCell id="OiDS644HAsrFSR9pFIKz-81" value="&lt;b&gt;&lt;font style=&quot;font-size: 20px;&quot;&gt;Main Menu&lt;/font&gt;&lt;/b&gt;" style="rounded=1;whiteSpace=wrap;html=1;fontSize=15;fillColor=#fff2cc;strokeColor=#d6b656;sketch=1;curveFitting=1;jiggle=2;" vertex="1" parent="1">
          <mxGeometry x="-817" y="445" width="180" height="60" as="geometry" />
        </mxCell>
      </root>
    </mxGraphModel>
  </diagram>
</mxfile>
